<mxfile host="app.diagrams.net" modified="2024-05-18T09:40:10.341Z" agent="Mozilla/5.0 (Macintosh; Intel Mac OS X 10.15; rv:125.0) Gecko/20100101 Firefox/125.0" etag="lXRwSpplUJBdiblby17T" version="24.4.4" type="github">
  <diagram name="Page-1" id="S3WV63hMLyfiwd73OtHw">
    <mxGraphModel dx="1804" dy="3942" grid="1" gridSize="10" guides="1" tooltips="1" connect="1" arrows="1" fold="1" page="1" pageScale="1" pageWidth="850" pageHeight="1100" math="0" shadow="0">
      <root>
        <mxCell id="0" />
        <mxCell id="1" parent="0" />
        <mxCell id="L0BqzjM5201Pp3WmGv8X-2" value="&lt;div align=&quot;left&quot;&gt;&lt;font style=&quot;font-size: 22px;&quot;&gt;&lt;br&gt;&lt;/font&gt;&lt;/div&gt;&lt;div align=&quot;left&quot;&gt;&lt;font style=&quot;font-size: 22px;&quot;&gt;&lt;br&gt;&lt;/font&gt;&lt;/div&gt;&lt;div align=&quot;left&quot;&gt;&lt;font style=&quot;font-size: 22px;&quot;&gt;&lt;br&gt;&lt;/font&gt;&lt;/div&gt;&lt;div align=&quot;left&quot;&gt;&lt;font style=&quot;font-size: 22px;&quot;&gt;&lt;br&gt;&lt;/font&gt;&lt;/div&gt;&lt;div align=&quot;left&quot;&gt;&lt;font style=&quot;font-size: 22px;&quot;&gt;&lt;br&gt;&lt;/font&gt;&lt;/div&gt;&lt;div align=&quot;left&quot;&gt;&lt;font style=&quot;font-size: 22px;&quot;&gt;&lt;br&gt;&lt;/font&gt;&lt;/div&gt;&lt;div align=&quot;left&quot;&gt;&lt;font style=&quot;font-size: 22px;&quot;&gt;&lt;br&gt;&lt;/font&gt;&lt;/div&gt;&lt;div align=&quot;left&quot;&gt;&lt;font style=&quot;font-size: 22px;&quot;&gt;&lt;br&gt;&lt;/font&gt;&lt;/div&gt;&lt;div align=&quot;left&quot;&gt;&lt;font style=&quot;font-size: 22px;&quot;&gt;Example for MLOps : - Building a House&lt;/font&gt;&lt;/div&gt;&lt;div align=&quot;left&quot;&gt;&lt;font style=&quot;font-size: 22px;&quot;&gt;1. Planning and Design (Development Stage)&lt;br&gt;&lt;/font&gt;&lt;/div&gt;&lt;div align=&quot;left&quot;&gt;&lt;font style=&quot;font-size: 22px;&quot;&gt;2. Building the foundation (Data Preparation)&lt;br&gt;&lt;/font&gt;&lt;/div&gt;&lt;div align=&quot;left&quot;&gt;&lt;font style=&quot;font-size: 22px;&quot;&gt;3. Construction (Model Training)&lt;br&gt;&lt;/font&gt;&lt;/div&gt;&lt;div align=&quot;left&quot;&gt;&lt;font style=&quot;font-size: 22px;&quot;&gt;4. Inspection &amp;amp; Approval (Model Evaluation)&lt;br&gt;&lt;/font&gt;&lt;/div&gt;&lt;div align=&quot;left&quot;&gt;&lt;font style=&quot;font-size: 22px;&quot;&gt;5. Handing over Keys (Deployment)&lt;br&gt;&lt;/font&gt;&lt;/div&gt;&lt;div align=&quot;left&quot;&gt;&lt;font style=&quot;font-size: 22px;&quot;&gt;6. Maintenance &amp;amp; Repairs (Monitoring and Maintenance)&lt;br&gt;&lt;/font&gt;&lt;/div&gt;&lt;div align=&quot;left&quot;&gt;&lt;font style=&quot;font-size: 22px;&quot;&gt;&lt;br&gt;&lt;/font&gt;&lt;/div&gt;&lt;div align=&quot;left&quot;&gt;&lt;font style=&quot;font-size: 22px;&quot;&gt;&lt;br&gt;&lt;/font&gt;&lt;/div&gt;&lt;div align=&quot;left&quot;&gt;&lt;font style=&quot;font-size: 22px;&quot;&gt;&lt;br&gt;&lt;/font&gt;&lt;/div&gt;" style="text;html=1;align=left;verticalAlign=middle;whiteSpace=wrap;rounded=0;" vertex="1" parent="1">
          <mxGeometry x="-10" y="-2380" width="830" height="30" as="geometry" />
        </mxCell>
        <mxCell id="L0BqzjM5201Pp3WmGv8X-3" value="&lt;h1 style=&quot;margin-top: 0px;&quot;&gt;Components of MLOps&lt;br&gt;&lt;/h1&gt;&lt;p&gt;&lt;font style=&quot;font-size: 22px;&quot;&gt;1. Continuous Integration (CI) - CI measures that any new changes in the model or code are automatically tested and integrated with the existing system&lt;br&gt;&lt;/font&gt;&lt;/p&gt;&lt;p&gt;&lt;font style=&quot;font-size: 22px;&quot;&gt;2. Continuous Deployment (CD) - CD automates the deployment of new model versions or updates to production without downtime.&lt;br&gt;&lt;/font&gt;&lt;/p&gt;&lt;p&gt;&lt;font style=&quot;font-size: 22px;&quot;&gt;3. Monitoring - MLops involves setting up monitoring systems to track the model&#39;s performance, detect anomalies and gather data on how it it&#39;s being used.&lt;br&gt;&lt;/font&gt;&lt;/p&gt;" style="text;html=1;whiteSpace=wrap;overflow=hidden;rounded=0;" vertex="1" parent="1">
          <mxGeometry x="-20" y="-2200" width="850" height="200" as="geometry" />
        </mxCell>
        <mxCell id="L0BqzjM5201Pp3WmGv8X-4" value="&lt;h1 style=&quot;margin-top: 0px;&quot;&gt;Importance of MLOps&lt;br&gt;&lt;/h1&gt;&lt;p&gt;&lt;font style=&quot;font-size: 19px;&quot;&gt;1. Efficiency 2. Reliability 3. Scalability&lt;br&gt;&lt;/font&gt;&lt;/p&gt;" style="text;html=1;whiteSpace=wrap;overflow=hidden;rounded=0;" vertex="1" parent="1">
          <mxGeometry x="-30" y="-1980" width="830" height="120" as="geometry" />
        </mxCell>
        <mxCell id="L0BqzjM5201Pp3WmGv8X-5" value="&lt;div align=&quot;left&quot;&gt;&lt;font style=&quot;font-size: 30px;&quot;&gt;Git , MlFlow, Jenkins , Grafana, AWS&lt;br&gt;&lt;/font&gt;&lt;/div&gt;" style="text;html=1;align=left;verticalAlign=middle;whiteSpace=wrap;rounded=0;strokeWidth=4;" vertex="1" parent="1">
          <mxGeometry x="-40" y="-1890" width="710" height="110" as="geometry" />
        </mxCell>
        <mxCell id="L0BqzjM5201Pp3WmGv8X-6" value="&lt;h1 style=&quot;margin-top: 0px; font-size: 29px;&quot;&gt;GIT&lt;/h1&gt;&lt;p style=&quot;font-size: 29px;&quot;&gt;1. GIT is open source Distributed version control System(DVCS).&lt;/p&gt;&lt;p style=&quot;font-size: 29px;&quot;&gt;2. A version control system allows us to record changes to files over a period&lt;/p&gt;&lt;p style=&quot;font-size: 29px;&quot;&gt;3. GIT is used to mainintain the historical and current versions of source code.&lt;/p&gt;&lt;p style=&quot;font-size: 29px;&quot;&gt;Usage of GIT at higher level&lt;/p&gt;&lt;p style=&quot;font-size: 29px;&quot;&gt;=&amp;gt; In a project, developers have a copy of all versions of the code stored in the central server.&lt;/p&gt;&lt;p style=&quot;font-size: 29px;&quot;&gt;=&amp;gt; GiT allows to track the changes, who made the changes and when&lt;/p&gt;&lt;p style=&quot;font-size: 29px;&quot;&gt;=&amp;gt; GIT allows rollback/ restore changes&lt;/p&gt;&lt;p style=&quot;font-size: 29px;&quot;&gt;=&amp;gt; GIT allows multiple developers to coordinate and work on the same file&lt;/p&gt;&lt;p style=&quot;font-size: 29px;&quot;&gt;=&amp;gt; GIT can maintain a copy of file at remote and local level&lt;br&gt;&lt;/p&gt;" style="text;html=1;whiteSpace=wrap;overflow=hidden;rounded=0;" vertex="1" parent="1">
          <mxGeometry x="-40" y="-1800" width="930" height="120" as="geometry" />
        </mxCell>
        <mxCell id="L0BqzjM5201Pp3WmGv8X-7" value="&lt;font style=&quot;font-size: 29px;&quot;&gt;Base Model&lt;/font&gt;" style="rounded=0;whiteSpace=wrap;html=1;" vertex="1" parent="1">
          <mxGeometry x="30" y="-1440" width="320" height="100" as="geometry" />
        </mxCell>
        <mxCell id="L0BqzjM5201Pp3WmGv8X-8" value="Best Hyperparameter" style="text;html=1;align=center;verticalAlign=middle;whiteSpace=wrap;rounded=0;" vertex="1" parent="1">
          <mxGeometry x="150" y="-1410" width="60" height="100" as="geometry" />
        </mxCell>
        <mxCell id="L0BqzjM5201Pp3WmGv8X-12" style="edgeStyle=orthogonalEdgeStyle;rounded=0;orthogonalLoop=1;jettySize=auto;html=1;" edge="1" parent="1" source="L0BqzjM5201Pp3WmGv8X-9" target="L0BqzjM5201Pp3WmGv8X-7">
          <mxGeometry relative="1" as="geometry" />
        </mxCell>
        <mxCell id="L0BqzjM5201Pp3WmGv8X-9" value="&lt;font style=&quot;font-size: 21px;&quot;&gt;Experiment Branch&lt;/font&gt;" style="rounded=0;whiteSpace=wrap;html=1;" vertex="1" parent="1">
          <mxGeometry x="470" y="-1440" width="240" height="100" as="geometry" />
        </mxCell>
        <mxCell id="L0BqzjM5201Pp3WmGv8X-16" value="&lt;div align=&quot;left&quot;&gt;&lt;font style=&quot;font-size: 20px;&quot;&gt;2. GIT allows developers to track changes, who made the changes and when&lt;/font&gt;&lt;/div&gt;&lt;div align=&quot;left&quot;&gt;&lt;font style=&quot;font-size: 20px;&quot;&gt;3. GIT allows Rollback/restore changes&lt;/font&gt;&lt;/div&gt;&lt;div align=&quot;left&quot;&gt;&lt;font style=&quot;font-size: 20px;&quot;&gt;4. GIT allows multiple developers to coordinate and work on same files&lt;/font&gt;&lt;/div&gt;&lt;div align=&quot;left&quot;&gt;&lt;font style=&quot;font-size: 20px;&quot;&gt;5. GIT maintain a copy of the files at the remote and local levels&lt;br&gt;&lt;/font&gt;&lt;/div&gt;" style="text;html=1;align=left;verticalAlign=middle;whiteSpace=wrap;rounded=0;" vertex="1" parent="1">
          <mxGeometry x="-50" y="-1640" width="760" height="30" as="geometry" />
        </mxCell>
      </root>
    </mxGraphModel>
  </diagram>
</mxfile>
